<svg xmlns="http://www.w3.org/2000/svg" width="20" height="53" fill="none" viewBox="0 0 20 53"><g filter="url(#filter0_d)"><rect width="2" height="10" x="7" y="3" fill="#FBAF37"/><rect width="2" height="6" x="9" fill="#F9AF35"/><rect width="2" height="10" x="11" y="3" fill="#FDAD3B"/><rect width="2" height="6" x="9" y="10" fill="#FCAC35"/><rect width="2" height="3" x="11" y="3" fill="#D67645"/><rect width="2" height="3" x="11" y="10" fill="#D67645"/><rect width="2" height="2" x="7" y="3" fill="#FEE963"/><rect width="2" height="2" x="9" y="10" fill="#FEE963"/><rect width="2" height="10" x="7" y="16" fill="#FBAF37"/><rect width="2" height="6" x="9" y="13" fill="#F9AF35"/><rect width="2" height="10" x="11" y="16" fill="#FDAD3B"/><rect width="2" height="6" x="9" y="23" fill="#FCAC35"/><rect width="2" height="3" x="11" y="16" fill="#D67645"/><rect width="2" height="3" x="11" y="23" fill="#D67645"/><rect width="2" height="2" x="7" y="16" fill="#FEE963"/><rect width="2" height="2" x="9" y="23" fill="#FEE963"/><rect width="2" height="10" x="7" y="29" fill="#FBAF37"/><rect width="2" height="6" x="9" y="26" fill="#F9AF35"/><rect width="2" height="10" x="11" y="29" fill="#FDAD3B"/><rect width="2" height="6" x="9" y="36" fill="#FCAC35"/><rect width="2" height="3" x="11" y="29" fill="#D67645"/><rect width="2" height="3" x="11" y="36" fill="#D67645"/><rect width="2" height="2" x="7" y="29" fill="#FEE963"/><rect width="2" height="2" x="9" y="36" fill="#FEE963"/></g><defs><filter id="filter0_d" width="20" height="56" x="0" y="-3" color-interpolation-filters="sRGB" filterUnits="userSpaceOnUse"><feFlood flood-opacity="0" result="BackgroundImageFix"/><feColorMatrix in="SourceAlpha" result="hardAlpha" type="matrix" values="0 0 0 0 0 0 0 0 0 0 0 0 0 0 0 0 0 0 127 0"/><feOffset dy="4"/><feGaussianBlur stdDeviation="3.5"/><feColorMatrix type="matrix" values="0 0 0 0 0 0 0 0 0 0 0 0 0 0 0 0 0 0 0.3 0"/><feBlend in2="BackgroundImageFix" mode="normal" result="effect1_dropShadow"/><feBlend in="SourceGraphic" in2="effect1_dropShadow" mode="normal" result="shape"/></filter></defs></svg>